<?xml version="1.0" encoding="UTF-8" standalone="no"?>
<!-- Created with Inkscape (http://www.inkscape.org/) -->

<svg
   width="4.2333331mm"
   height="4.2333336mm"
   viewBox="0 0 4.2333331 4.2333336"
   version="1.1"
   id="svg1"
   inkscape:version="1.3.2 (091e20e, 2023-11-25, custom)"
   sodipodi:docname="Alura Geek.svg"
   inkscape:export-filename="Alura Geek.svg"
   inkscape:export-xdpi="93"
   inkscape:export-ydpi="93"
   xmlns:inkscape="http://www.inkscape.org/namespaces/inkscape"
   xmlns:sodipodi="http://sodipodi.sourceforge.net/DTD/sodipodi-0.dtd"
   xmlns:xlink="http://www.w3.org/1999/xlink"
   xmlns="http://www.w3.org/2000/svg"
   xmlns:svg="http://www.w3.org/2000/svg">
  <sodipodi:namedview
     id="namedview1"
     pagecolor="#505050"
     bordercolor="#eeeeee"
     borderopacity="1"
     inkscape:showpageshadow="0"
     inkscape:pageopacity="0"
     inkscape:pagecheckerboard="0"
     inkscape:deskcolor="#505050"
     inkscape:document-units="mm"
     inkscape:zoom="0.48976612"
     inkscape:cx="489.00892"
     inkscape:cy="224.597"
     inkscape:window-width="1920"
     inkscape:window-height="991"
     inkscape:window-x="-9"
     inkscape:window-y="-9"
     inkscape:window-maximized="1"
     inkscape:current-layer="layer8"
     inkscape:export-bgcolor="#ffffff00" />
  <defs
     id="defs1">
    <inkscape:path-effect
       effect="fillet_chamfer"
       id="path-effect131"
       is_visible="true"
       lpeversion="1"
       nodesatellites_param="F,0,0,1,0,0,0,1 @ F,0,0,1,0,6.9636171,0,1 @ F,0,0,1,0,0,0,1 @ F,0,0,1,0,0,0,1"
       radius="0"
       unit="px"
       method="auto"
       mode="F"
       chamfer_steps="1"
       flexible="false"
       use_knot_distance="true"
       apply_no_radius="true"
       apply_with_radius="true"
       only_selected="false"
       hide_knots="false" />
    <linearGradient
       id="linearGradient17"
       inkscape:collect="always">
      <stop
         style="stop-color:#ff3434;stop-opacity:1;"
         offset="0"
         id="stop17" />
      <stop
         style="stop-color:#ff3434;stop-opacity:0;"
         offset="1"
         id="stop18" />
    </linearGradient>
    <linearGradient
       id="linearGradient15"
       inkscape:collect="always">
      <stop
         style="stop-color:#550000;stop-opacity:1;"
         offset="0"
         id="stop15" />
      <stop
         style="stop-color:#550000;stop-opacity:0;"
         offset="1"
         id="stop16" />
    </linearGradient>
    <linearGradient
       id="linearGradient13"
       inkscape:collect="always">
      <stop
         style="stop-color:#ff3434;stop-opacity:1;"
         offset="0"
         id="stop13" />
      <stop
         style="stop-color:#550000;stop-opacity:1"
         offset="1"
         id="stop14" />
    </linearGradient>
    <linearGradient
       inkscape:collect="always"
       xlink:href="#linearGradient15"
       id="linearGradient131"
       gradientUnits="userSpaceOnUse"
       gradientTransform="matrix(0.01076801,0,0,0.01215399,163.89073,304.36769)"
       x1="204.90225"
       y1="186.17186"
       x2="199.13304"
       y2="160.64777" />
    <linearGradient
       inkscape:collect="always"
       xlink:href="#linearGradient17"
       id="linearGradient132"
       gradientUnits="userSpaceOnUse"
       gradientTransform="matrix(0.01076801,0,0,-0.01215399,163.89505,308.24456)"
       x1="103.37047"
       y1="195.15642"
       x2="106.34682"
       y2="185.73674" />
    <linearGradient
       inkscape:collect="always"
       xlink:href="#linearGradient13"
       id="linearGradient133"
       gradientUnits="userSpaceOnUse"
       x1="97.096977"
       y1="173.91708"
       x2="96.508743"
       y2="245.1329" />
  </defs>
  <g
     inkscape:groupmode="layer"
     id="layer8"
     inkscape:label="Cuadro Bg"
     style="display:inline"
     transform="translate(-118.99012,-287.48012)">
    <rect
       style="fill:#f9f9f9;fill-opacity:0;stroke:#000000;stroke-width:0.0503704;stroke-dasharray:none;stroke-opacity:1"
       id="rect90"
       width="4.1829629"
       height="4.1829629"
       x="119.0153"
       y="287.50531" />
  </g>
  <g
     inkscape:groupmode="layer"
     id="layer6"
     inkscape:label="Rupia base"
     transform="matrix(1.1733299,0,0,1.0543763,-193.34656,-321.35026)"
     style="display:inline">
    <path
       sodipodi:type="star"
       style="fill:#960000;fill-opacity:1;stroke:#000000;stroke-width:2.63241;stroke-dasharray:none"
       id="path90"
       inkscape:flatsided="false"
       sodipodi:sides="6"
       sodipodi:cx="98.453033"
       sodipodi:cy="208.80247"
       sodipodi:r1="49.460133"
       sodipodi:r2="44.204659"
       sodipodi:arg1="0.5304625"
       sodipodi:arg2="1.3102537"
       inkscape:rounded="0"
       inkscape:randomized="0"
       d="m 141.11602,233.82596 -31.27565,17.68928 -11.726815,6.7462 -30.957194,-18.24086 -11.705789,-6.78262 0.318452,-35.93015 0.02103,-13.52882 31.275647,-17.68928 11.726815,-6.7462 30.957198,18.24086 11.70578,6.78262 -0.31845,35.93015 z"
       inkscape:transform-center-x="-0.0013710744"
       inkscape:transform-center-y="-0.095037072"
       transform="matrix(0.01412908,0,0,0.02629301,164.15054,300.82012)"
       inkscape:label="path7" />
    <path
       style="display:inline;fill:#ff3434;fill-opacity:1;stroke:#000000;stroke-width:0.0258081;stroke-dasharray:none;stroke-opacity:0"
       d="m 164.95847,305.67255 c 0.22353,0.19596 0.2345,0.20248 0.2345,0.20248 l 0.35622,-0.40926 -0.006,-0.41098 z"
       id="path91"
       sodipodi:nodetypes="ccccc" />
    <path
       sodipodi:type="star"
       style="display:inline;fill:url(#linearGradient133);fill-opacity:1;stroke:#000000;stroke-width:2.90381;stroke-dasharray:none;stroke-opacity:1"
       id="path92"
       inkscape:flatsided="false"
       sodipodi:sides="6"
       sodipodi:cx="98.453033"
       sodipodi:cy="208.80247"
       sodipodi:r1="49.460133"
       sodipodi:r2="44.204659"
       sodipodi:arg1="0.5304625"
       sodipodi:arg2="1.3102537"
       inkscape:rounded="0"
       inkscape:randomized="0"
       d="m 141.11602,233.82596 -31.27565,17.68928 -11.726815,6.7462 -30.957194,-18.24086 -11.705789,-6.78262 0.318452,-35.93015 0.02103,-13.52882 31.275647,-17.68928 11.726815,-6.7462 30.957198,18.24086 11.70578,6.78262 -0.31845,35.93015 z"
       inkscape:transform-center-x="-0.0008166411"
       inkscape:transform-center-y="-0.061636583"
       transform="matrix(0.00842827,0,0,0.0170512,164.72649,302.76407)"
       inkscape:label="path7" />
    <path
       style="display:inline;fill:#800000;fill-opacity:0;stroke:#000000;stroke-width:0.0113267;stroke-dasharray:none;stroke-opacity:1"
       d="m 166.16012,305.65699 -0.25789,0.25386"
       id="path93" />
    <path
       style="display:inline;fill:#550000;fill-opacity:1;stroke:#000000;stroke-width:0.0259221;stroke-dasharray:none;stroke-opacity:0"
       d="m 166.13005,306.9438 c -0.20212,-0.18833 -0.207,-0.1853 -0.207,-0.1853 l -0.37199,0.43254 -0.01,0.3747 z"
       id="path94"
       sodipodi:nodetypes="ccccc" />
    <path
       style="display:inline;fill:url(#linearGradient132);fill-opacity:1;stroke:#000000;stroke-width:0.0186194;stroke-dasharray:none;stroke-opacity:0"
       d="m 164.95836,305.67861 c 0.22996,0.19205 0.22592,0.1984 0.22592,0.1984 l -0.001,0.11303 -0.22323,0.22176 z"
       id="path95"
       sodipodi:nodetypes="ccccc" />
    <path
       style="display:inline;fill:url(#linearGradient131);fill-opacity:1;stroke:#000000;stroke-width:0.0231243;stroke-dasharray:none;stroke-opacity:0"
       d="m 166.12863,306.17873 c -0.19706,0.058 -0.19813,0.0539 -0.19813,0.0539 l -0.006,0.51512 0.20519,0.18771 z"
       id="path96"
       sodipodi:nodetypes="ccccc" />
    <path
       style="display:inline;fill:#800000;fill-opacity:0;stroke:#000000;stroke-width:0.0116267;stroke-dasharray:none;stroke-opacity:1"
       d="m 165.54801,305.04655 0.008,0.43401"
       id="path97" />
    <path
       style="display:inline;fill:#800000;fill-opacity:0;stroke:#000000;stroke-width:0.0116267;stroke-dasharray:none;stroke-opacity:1"
       d="m 164.923,305.64363 0.28157,0.25177"
       id="path98" />
    <path
       style="display:inline;fill:#800000;fill-opacity:0;stroke:#000000;stroke-width:0.0107315;stroke-dasharray:none;stroke-opacity:1"
       d="m 164.92251,306.96027 0.2773,-0.22141"
       id="path99" />
    <path
       style="display:inline;fill:#800000;fill-opacity:0;stroke:#000000;stroke-width:0.00931025;stroke-dasharray:none;stroke-opacity:1"
       d="m 165.9196,306.74918 0.23228,0.20848"
       id="path100" />
    <path
       style="display:inline;fill:#800000;fill-opacity:0;stroke:#000000;stroke-width:0.0113405;stroke-dasharray:none;stroke-opacity:1"
       d="m 165.54897,307.1643 -0.008,0.42215"
       id="path101" />
  </g>
  <g
     inkscape:label="Capa 1"
     inkscape:groupmode="layer"
     id="layer1"
     style="display:inline"
     transform="translate(-118.99012,-287.48012)">
    <g
       inkscape:groupmode="layer"
       id="layer5"
       inkscape:label="Capa "
       style="fill:#00ff00">
      <ellipse
         style="fill:#00ff00;fill-opacity:1;stroke:#ffffff;stroke-width:0.04917;stroke-dasharray:none;stroke-opacity:0"
         id="ellipse101"
         cx="121.84908"
         cy="289.00595"
         rx="0.94627476"
         ry="0.89356881" />
    </g>
    <ellipse
       style="fill:#1dcc1a;fill-opacity:1;stroke:#000000;stroke-width:0.00327679;stroke-opacity:1"
       id="ellipse102"
       transform="matrix(0.99995759,0.00920919,-0.00781299,0.99996948,0,0)"
       ry="0.92921102"
       rx="1.0351865"
       cy="287.91687"
       cx="124.27581" />
    <ellipse
       style="fill:#1dcc1a;fill-opacity:0;stroke:#000000;stroke-width:0.050461;stroke-dasharray:none;stroke-opacity:1"
       id="ellipse103"
       ry="0.92724395"
       rx="1.0798196"
       cy="287.94962"
       cx="124.32015"
       transform="matrix(0.99996119,0.00880981,-0.00816718,0.99996665,0,0)" />
  </g>
  <g
     inkscape:groupmode="layer"
     id="layer2"
     inkscape:label="Capa 2"
     style="display:inline"
     transform="translate(-118.99012,-287.48012)">
    <rect
       style="fill:#ffffff;stroke:#000000;stroke-width:0.0341485;stroke-dasharray:none;stroke-opacity:1"
       id="rect103"
       width="1.2532711"
       height="1.1324567"
       x="121.34972"
       y="289.09583"
       ry="0.36844462"
       rx="0.62663555" />
  </g>
  <g
     inkscape:groupmode="layer"
     id="layer3"
     inkscape:label="Capa 3"
     style="display:inline"
     transform="translate(-118.99012,-287.48012)">
    <ellipse
       style="fill:#000000;fill-opacity:1;stroke:#000000;stroke-width:0.0584718;stroke-dasharray:none;stroke-opacity:1"
       id="ellipse104"
       cx="121.64095"
       cy="289.58112"
       rx="0.058912538"
       ry="0.26058683" />
    <ellipse
       style="fill:#000000;fill-opacity:1;stroke:#000000;stroke-width:0.0584718;stroke-dasharray:none;stroke-opacity:1"
       id="ellipse105"
       cx="122.27105"
       cy="289.55551"
       rx="0.058912538"
       ry="0.26058683" />
  </g>
  <g
     inkscape:groupmode="layer"
     id="layer4"
     inkscape:label="Capa 4"
     style="display:inline"
     transform="translate(-118.99012,-287.48012)">
    <ellipse
       style="fill:#ffffff;fill-opacity:1;stroke:#ffffff;stroke-width:0.046561;stroke-dasharray:none;stroke-opacity:1"
       id="ellipse106"
       cx="121.62016"
       cy="289.49194"
       rx="0.012493904"
       ry="0.066984631" />
    <ellipse
       style="fill:#ffffff;fill-opacity:1;stroke:#ffffff;stroke-width:0.046561;stroke-dasharray:none;stroke-opacity:1"
       id="ellipse107"
       cx="122.24316"
       cy="289.46185"
       rx="0.012493904"
       ry="0.066984631" />
    <ellipse
       style="fill:#ffffff;fill-opacity:1;stroke:#ffffff;stroke-width:0.0529791;stroke-dasharray:none;stroke-opacity:1"
       id="ellipse108"
       cx="121.9573"
       cy="288.55472"
       rx="0.48729554"
       ry="0.34559816" />
    <ellipse
       style="fill:#ffffff;fill-opacity:1;stroke:#ffffff;stroke-width:0.0296802;stroke-dasharray:none;stroke-opacity:1"
       id="ellipse109"
       cx="121.08931"
       cy="289.04584"
       rx="0.094081216"
       ry="0.33553836" />
    <ellipse
       style="fill:#ffffff;fill-opacity:1;stroke:#ffffff;stroke-width:0.0296802;stroke-dasharray:none;stroke-opacity:1"
       id="ellipse110"
       ry="0.33553836"
       rx="0.094081216"
       cy="289.05276"
       cx="122.85291" />
  </g>
  <g
     inkscape:groupmode="layer"
     id="layer7"
     inkscape:label="R2-D2"
     style="display:inline"
     transform="translate(-118.99012,-287.48012)">
    <path
       style="fill:#bdbdc4;fill-opacity:1;stroke:#000000;stroke-width:0.0228094;stroke-dasharray:none;stroke-opacity:1"
       id="path110"
       sodipodi:type="arc"
       sodipodi:cx="-120.27164"
       sodipodi:cy="-292.09674"
       sodipodi:rx="1.1845744"
       sodipodi:ry="1.5445627"
       sodipodi:start="0"
       sodipodi:end="3.1495759"
       sodipodi:arc-type="slice"
       d="m -119.08706,-292.09674 a 1.1845744,1.5445627 0 0 1 -0.59502,1.33968 1.1845744,1.5445627 0 0 1 -1.1873,-0.006 1.1845744,1.5445627 0 0 1 -0.58679,-1.34583 l 1.18453,0.0123 z"
       transform="matrix(-0.99998997,0.0044796,-0.0020942,-0.99999781,0,0)" />
    <path
       sodipodi:type="star"
       style="fill:#020e63;fill-opacity:1;stroke:#000000;stroke-width:3.17601;stroke-dasharray:none;stroke-opacity:0"
       id="path111"
       inkscape:flatsided="true"
       sodipodi:sides="4"
       sodipodi:cx="97.240295"
       sodipodi:cy="74.280777"
       sodipodi:r1="12.019983"
       sodipodi:r2="3.2413428"
       sodipodi:arg1="0.78605966"
       sodipodi:arg2="1.5714578"
       inkscape:rounded="0"
       inkscape:randomized="0"
       d="m 105.73408,82.785809 -10.035201,-0.0066 A 6.9636171,6.9636171 45.037901 0 1 88.73987,75.810949 l 0.0066,-10.035204 16.998822,0.01124 z"
       transform="matrix(0.02669701,0,0,0.00395109,118.29408,290.82676)"
       inkscape:path-effect="#path-effect131" />
    <path
       style="fill:#020e63;fill-opacity:1;stroke:#000000;stroke-width:0.0432236;stroke-dasharray:none;stroke-opacity:0"
       d="m 120.55694,291.09166 0.0432,-0.6219 0.49582,10e-4 0.0216,0.61697 z"
       id="path112"
       sodipodi:nodetypes="ccccc" />
    <rect
       style="fill:#020e63;fill-opacity:1;stroke:#000000;stroke-width:0.0240657;stroke-dasharray:none;stroke-opacity:0"
       id="rect112"
       width="0.12787496"
       height="0.49808165"
       x="121.09311"
       y="290.49939" />
    <rect
       style="fill:#bdbdc4;fill-opacity:1;stroke:#000000;stroke-width:0.0164278;stroke-dasharray:none;stroke-opacity:0"
       id="rect113"
       width="0.10267124"
       height="0.090480283"
       x="121.15749"
       y="290.58279" />
    <rect
       style="fill:#bdbdc4;fill-opacity:1;stroke:#000000;stroke-width:0.0150985;stroke-dasharray:none;stroke-opacity:0"
       id="rect114"
       width="0.081827305"
       height="0.095898993"
       x="121.16028"
       y="290.83676" />
    <path
       style="fill:#0f0f10;fill-opacity:1;stroke:#000000;stroke-width:0.0245641;stroke-dasharray:none;stroke-opacity:0"
       id="path114"
       sodipodi:type="arc"
       sodipodi:cx="120.82342"
       sodipodi:cy="290.77826"
       sodipodi:rx="0.1645142"
       sodipodi:ry="0.19902566"
       sodipodi:start="3.1465349"
       sodipodi:end="3.1463291"
       sodipodi:arc-type="slice"
       d="m 120.65891,290.77728 a 0.1645142,0.19902566 0 0 1 0.16531,-0.19804 0.1645142,0.19902566 0 0 1 0.16371,0.19998 0.1645142,0.19902566 0 0 1 -0.1653,0.19806 0.1645142,0.19902566 0 0 1 -0.16372,-0.19996 l 0.16451,9.4e-4 z" />
    <path
       style="fill:#ffffff;fill-opacity:1;stroke:#000000;stroke-width:0.0296219;stroke-dasharray:none;stroke-opacity:0"
       id="path115"
       sodipodi:type="arc"
       sodipodi:cx="120.7657"
       sodipodi:cy="290.70068"
       sodipodi:rx="0.055420749"
       sodipodi:ry="0.062970646"
       sodipodi:start="3.1465349"
       sodipodi:end="3.1463291"
       sodipodi:arc-type="slice"
       d="m 120.71028,290.70037 a 0.05542075,0.06297065 0 0 1 0.0557,-0.0627 0.05542075,0.06297065 0 0 1 0.0551,0.0633 0.05542075,0.06297065 0 0 1 -0.0557,0.0627 0.05542075,0.06297065 0 0 1 -0.0552,-0.0633 l 0.0554,2.9e-4 z" />
    <path
       style="fill:#ffffff;fill-opacity:1;stroke:#000000;stroke-width:0.0128631;stroke-dasharray:none;stroke-opacity:0"
       id="path116"
       sodipodi:type="arc"
       sodipodi:cx="120.75844"
       sodipodi:cy="290.82495"
       sodipodi:rx="0.02413084"
       sodipodi:ry="0.02727107"
       sodipodi:start="3.1465349"
       sodipodi:end="3.1463291"
       sodipodi:arc-type="slice"
       d="m 120.73431,290.82482 a 0.02413084,0.02727107 0 0 1 0.0243,-0.0271 0.02413084,0.02727107 0 0 1 0.024,0.0274 0.02413084,0.02727107 0 0 1 -0.0243,0.0271 0.02413084,0.02727107 0 0 1 -0.024,-0.0274 l 0.0241,1.3e-4 z" />
    <path
       style="fill:#020e63;fill-opacity:1;stroke:#000000;stroke-width:0.0101938;stroke-dasharray:none;stroke-opacity:1"
       id="path117"
       sodipodi:type="arc"
       sodipodi:cx="120.88053"
       sodipodi:cy="290.07654"
       sodipodi:rx="0.32421151"
       sodipodi:ry="0.071732983"
       sodipodi:start="3.1525265"
       sodipodi:end="0.037394666"
       sodipodi:arc-type="slice"
       d="m 120.55634,290.07575 a 0.32421151,0.07173298 0 0 1 0.16766,-0.062 0.32421151,0.07173298 0 0 1 0.32659,0.002 0.32421151,0.07173298 0 0 1 0.15393,0.0638 l -0.32399,-0.003 z" />
    <rect
       style="fill:#020e63;fill-opacity:1;stroke:#000000;stroke-width:0.00602857;stroke-dasharray:none;stroke-opacity:0"
       id="rect117"
       width="2.3485422"
       height="0.067668609"
       x="119.70779"
       y="291.45068" />
    <path
       style="fill:#020e63;fill-opacity:1;stroke:#000000;stroke-width:0.00604258;stroke-dasharray:none;stroke-opacity:0"
       d="m 120.25235,290.38112 0.51383,0.003 0.0144,-0.25607 -0.2233,-0.003 z"
       id="path118"
       sodipodi:nodetypes="ccccc" />
    <path
       style="fill:#020e63;fill-opacity:1;stroke:#000000;stroke-width:0.00604258;stroke-dasharray:none;stroke-opacity:0"
       d="m 121.50487,290.37549 -0.51383,0.003 -0.0144,-0.25608 0.2233,-0.003 z"
       id="path119"
       sodipodi:nodetypes="ccccc" />
    <rect
       style="fill:#020e63;fill-opacity:1;stroke:#000000;stroke-width:0.00647611;stroke-dasharray:none;stroke-opacity:0"
       id="rect119"
       width="0.321347"
       height="0.22605869"
       x="120.71716"
       y="291.18475"
       ry="0.040816154" />
    <path
       style="fill:#ff0000;fill-opacity:1;stroke:#000000;stroke-width:0.00915668;stroke-dasharray:none;stroke-opacity:0"
       id="path120"
       sodipodi:type="arc"
       sodipodi:cx="120.93428"
       sodipodi:cy="291.29037"
       sodipodi:rx="0.060766365"
       sodipodi:ry="0.074872106"
       sodipodi:start="3.1465349"
       sodipodi:end="3.1463291"
       sodipodi:arc-type="slice"
       d="m 120.87351,291.29 a 0.06076637,0.07487211 0 0 1 0.0611,-0.0745 0.06076637,0.07487211 0 0 1 0.0605,0.0752 0.06076637,0.07487211 0 0 1 -0.0611,0.0745 0.06076637,0.07487211 0 0 1 -0.0605,-0.0752 l 0.0608,3.5e-4 z" />
    <path
       style="fill:#ffaaaa;fill-opacity:1;stroke:#000000;stroke-width:0.00272303;stroke-dasharray:none;stroke-opacity:0"
       id="path121"
       sodipodi:type="arc"
       sodipodi:cx="120.90971"
       sodipodi:cy="291.26547"
       sodipodi:rx="0.01821094"
       sodipodi:ry="0.022094235"
       sodipodi:start="3.1465349"
       sodipodi:end="3.1463291"
       sodipodi:arc-type="slice"
       d="m 120.8915,291.26536 a 0.01821094,0.02209423 0 0 1 0.0183,-0.022 0.01821094,0.02209423 0 0 1 0.0181,0.0222 0.01821094,0.02209423 0 0 1 -0.0183,0.022 0.01821094,0.02209423 0 0 1 -0.0181,-0.0222 l 0.0182,10e-5 z" />
    <path
       style="fill:#ffaaaa;fill-opacity:1;stroke:#000000;stroke-width:0.00136917;stroke-dasharray:none;stroke-opacity:0"
       id="path122"
       sodipodi:type="arc"
       sodipodi:cx="120.91006"
       sodipodi:cy="291.31622"
       sodipodi:rx="0.0093587367"
       sodipodi:ry="0.010869277"
       sodipodi:start="3.1465349"
       sodipodi:end="3.1463291"
       sodipodi:arc-type="slice"
       d="m 120.9007,291.31617 a 0.00935874,0.01086928 0 0 1 0.009,-0.0108 0.00935874,0.01086928 0 0 1 0.009,0.0109 0.00935874,0.01086928 0 0 1 -0.009,0.0108 0.00935874,0.01086928 0 0 1 -0.009,-0.0109 l 0.009,5e-5 z" />
    <rect
       style="fill:#020e63;fill-opacity:1;stroke:#000000;stroke-width:0.00400735;stroke-dasharray:none;stroke-opacity:0"
       id="rect122"
       width="0.27377504"
       height="0.10159836"
       x="291.30527"
       y="-120.50163"
       ry="0.018344151"
       transform="matrix(5.1400265e-4,0.99999987,-0.99999905,0.00137941,0,0)" />
    <path
       style="fill:#020e63;fill-opacity:1;stroke:#000000;stroke-width:0.00679984;stroke-dasharray:none;stroke-opacity:0"
       d="m 120.08472,291.40721 0.32091,0.004 0.0144,-0.32513 -0.25625,-0.004 z"
       id="path123"
       sodipodi:nodetypes="ccccc" />
    <rect
       style="fill:#808080;fill-opacity:1;stroke:#000000;stroke-width:0.0097974;stroke-dasharray:none;stroke-opacity:1"
       id="rect123"
       width="0.16721104"
       height="0.10142587"
       x="120.19634"
       y="291.11746"
       ry="0"
       rx="0" />
    <rect
       style="fill:#808080;fill-opacity:1;stroke:#000000;stroke-width:0.0097974;stroke-dasharray:none;stroke-opacity:1"
       id="rect124"
       width="0.16721104"
       height="0.10142587"
       x="120.16579"
       y="291.2717"
       ry="0"
       rx="0" />
    <path
       style="fill:#020e63;fill-opacity:1;stroke:#000000;stroke-width:0.00679984;stroke-dasharray:none;stroke-opacity:0"
       d="m 119.71375,291.40158 0.28249,-6.5e-4 0.0804,-0.33639 -0.30787,-0.002 z"
       id="path124"
       sodipodi:nodetypes="ccccc" />
    <path
       style="fill:#020e63;fill-opacity:1;stroke:#000000;stroke-width:0.00297574;stroke-dasharray:none;stroke-opacity:0"
       id="path125"
       sodipodi:type="arc"
       sodipodi:cx="-207.85262"
       sodipodi:cy="175.88173"
       sodipodi:rx="0.15983644"
       sodipodi:ry="0.012399065"
       sodipodi:start="3.1525265"
       sodipodi:end="0.037394666"
       sodipodi:arc-type="slice"
       d="m -208.01244,175.88159 a 0.15983644,0.01239907 0 0 1 0.0827,-0.0107 0.15983644,0.01239907 0 0 1 0.16101,3e-4 0.15983644,0.01239907 0 0 1 0.0759,0.011 l -0.15973,-4.6e-4 z"
       transform="matrix(0.16169746,-0.98684038,0.87190451,0.48967594,0,0)" />
    <path
       style="fill:#020e63;fill-opacity:1;stroke:#000000;stroke-width:0.00477938;stroke-dasharray:none;stroke-opacity:0"
       d="m 121.6226,291.40838 -0.16339,-0.002 -0.0119,-0.3261 0.13528,-7.8e-4 z"
       id="path126"
       sodipodi:nodetypes="ccccc" />
    <path
       style="fill:#020e63;fill-opacity:1;stroke:#000000;stroke-width:0.00489487;stroke-dasharray:none;stroke-opacity:0"
       d="m 121.83667,291.40739 -0.16995,-6.2e-4 -0.0364,-0.32597 0.15845,6.3e-4 z"
       id="path127"
       sodipodi:nodetypes="ccccc" />
    <path
       style="fill:#020e63;fill-opacity:1;stroke:#000000;stroke-width:0.00485007;stroke-dasharray:none;stroke-opacity:0"
       d="m 122.03024,291.41023 -0.15971,-0.006 -0.0443,-0.32601 0.13923,-0.002 z"
       id="path128"
       sodipodi:nodetypes="ccccc" />
    <ellipse
       style="fill:#808080;fill-opacity:1;stroke:#000000;stroke-width:0.0127139;stroke-dasharray:none;stroke-opacity:1"
       id="ellipse128"
       cx="121.25721"
       cy="291.25909"
       rx="0.11828613"
       ry="0.14003603" />
    <ellipse
       style="fill:#808080;fill-opacity:1;stroke:#000000;stroke-width:0.0150847;stroke-dasharray:none;stroke-opacity:1"
       id="ellipse129"
       cx="121.32047"
       cy="291.26028"
       rx="0.087567903"
       ry="0.10619429" />
    <ellipse
       style="fill:#efefef;fill-opacity:1;stroke:#000000;stroke-width:0.0114864;stroke-dasharray:none;stroke-opacity:1"
       id="ellipse130"
       cx="121.32456"
       cy="291.25967"
       rx="0.047963817"
       ry="0.059694219" />
  </g>
</svg>
